<mxfile host="app.diagrams.net" modified="2023-11-23T19:21:27.799Z" agent="Mozilla/5.0 (Windows NT 10.0; Win64; x64) AppleWebKit/537.36 (KHTML, like Gecko) Chrome/119.0.0.0 Safari/537.36" version="22.1.3" etag="GGHPheGWNAaL3ajB8L3n" type="github">
  <diagram name="Сторінка-1" id="1Kbi6VrHeEXB_VJCEWBj">
    <mxGraphModel>
      <root>
        <mxCell id="0" />
        <mxCell id="1" parent="0" />
      </root>
    </mxGraphModel>
  </diagram>
</mxfile>
